<svg xmlns="http://www.w3.org/2000/svg" width="1215" height="501" viewBox="0 0 1215 501" version="1.1"><path d="M 952.500 10.098 C 915.171 14.631, 880.303 29.860, 859.049 50.910 C 846.540 63.300, 839.826 74.541, 836 89.500 C 828.589 118.477, 842.707 143.438, 869.673 149.036 L 875.371 150.219 864.055 155.604 C 836.654 168.644, 816.797 186.916, 807.979 207.203 L 805.500 212.907 796.130 215.953 C 785.242 219.494, 783 219.708, 783 217.210 C 783 209.208, 775.308 191.784, 768.368 184.064 C 758.096 172.640, 748.813 168.664, 732.500 168.703 C 715.505 168.744, 700.597 173.829, 686 184.565 C 659.438 204.100, 644.152 237.309, 645.167 273.274 L 645.500 285.048 637.869 293.320 C 628.703 303.256, 621.769 308.218, 612.455 311.504 C 598.717 316.351, 585.624 313.837, 579.640 305.202 C 572.415 294.777, 568.678 268.222, 570.451 239.910 L 571.177 228.319 589.339 225.078 C 626.347 218.473, 635.261 215.748, 643.815 208.426 C 649.219 203.801, 652 197.800, 652 190.766 C 652 179.194, 651.334 179.009, 625.915 183.490 C 614.968 185.421, 605.549 187, 604.983 187 C 604.418 187, 607.421 182.838, 611.657 177.750 C 635.952 148.573, 647.339 120.493, 647.445 89.500 C 647.498 74.030, 645.319 65.508, 639.265 57.500 C 634.233 50.845, 628.543 48, 620.263 48 C 597.174 48, 574.168 70.868, 556.552 111.327 C 547.553 131.994, 539.514 159.636, 534.688 186.500 L 532.353 199.500 526.926 200.700 C 523.942 201.360, 518.082 202.613, 513.905 203.484 C 508.007 204.714, 505.604 205.758, 503.146 208.161 C 497.033 214.138, 495.074 229.604, 499.653 235.738 C 502.583 239.661, 505.967 240.122, 517.549 238.172 L 527.820 236.442 527.647 261.981 L 527.474 287.519 514.370 305.010 C 492.904 333.660, 481.712 342.938, 474.913 337.718 C 468.596 332.868, 469.195 325.351, 480.469 268 C 490.023 219.395, 490.412 215.361, 485.774 212.879 C 480.565 210.091, 463.247 214.819, 457.456 220.611 C 452.550 225.517, 451.505 227.997, 446.458 246.717 C 430.297 306.663, 411.432 345.156, 399.354 342.830 C 394.824 341.957, 393.914 332.607, 396.472 313.209 C 398.917 294.673, 401.823 278.544, 406.528 257.394 C 408.987 246.335, 411 235.922, 411 234.254 C 411 229.315, 408.153 226.723, 402.843 226.830 C 387.607 227.136, 375.941 234.054, 370.602 245.952 C 364.266 260.071, 355.887 300.594, 354.094 325.788 C 353.055 340.394, 352.511 341.433, 338.500 355.600 C 318.230 376.095, 301.862 376.059, 292.461 355.500 C 288.983 347.894, 285.335 334.332, 286.463 333.203 C 286.849 332.816, 295.790 332.237, 306.333 331.915 C 323.172 331.401, 326.106 331.061, 330.488 329.116 C 340.008 324.890, 344.072 318.719, 344.721 307.500 C 345.056 301.707, 344.772 299.938, 343.072 297.241 C 338.287 289.647, 329.874 287.698, 301.383 287.582 L 281.267 287.500 280.595 272.500 C 279.832 255.467, 281.250 206.048, 283.608 167.500 C 285.726 132.883, 285.689 126.072, 283.356 121.312 C 280.569 115.627, 275.952 113, 268.746 113 C 257.229 113, 246.110 117.092, 238.456 124.148 C 229.301 132.586, 227.119 137.841, 216.091 178.007 C 205.585 216.274, 198.969 238.517, 188.795 269.782 C 181.052 293.580, 179.268 298.129, 177.546 298.471 C 139.791 305.976, 119.715 311.787, 101.131 320.589 C 60.872 339.658, 41.230 366.496, 39.353 405 C 38.708 418.252, 40.245 427.541, 44.532 436.298 C 55.437 458.568, 77.324 468.760, 103.060 463.550 C 125.421 459.023, 143.803 447.115, 160.279 426.484 C 175.516 407.404, 188.072 384.920, 199.917 355.500 L 206.762 338.500 220.924 337.126 C 228.713 336.371, 235.333 336, 235.635 336.302 C 235.937 336.604, 237.050 341.947, 238.109 348.176 C 244.575 386.236, 257.155 408.120, 276.640 415.205 C 281.009 416.793, 284.790 417.332, 291.500 417.322 C 312.398 417.291, 331.441 407.843, 350.192 388.201 L 357.884 380.144 361.044 385.069 C 367.183 394.635, 374.814 398.657, 385.063 397.728 C 402.936 396.107, 418.760 378.774, 428.079 350.608 L 431.683 339.716 432.297 348.108 C 433.380 362.903, 438.405 374.615, 445.568 379.042 C 450.390 382.022, 458.087 382.567, 466.500 380.523 C 475.660 378.297, 489.814 371.369, 498.186 365.013 C 506.483 358.713, 520.146 344.309, 528.788 332.750 C 532.386 327.937, 535.629 324, 535.994 324 C 536.359 324, 537.748 326.356, 539.079 329.236 C 542.191 335.967, 552.981 346.922, 559.436 349.905 C 562.151 351.159, 567.551 352.858, 571.436 353.679 C 588.592 357.308, 615.198 350.557, 632.500 338.183 C 635.250 336.217, 642.089 330.133, 647.698 324.665 L 657.897 314.722 663.058 319.362 C 670.023 325.624, 679.101 329.798, 688.844 331.218 C 695.470 332.184, 698.431 332.101, 706.908 330.709 C 719.495 328.643, 728.179 325.278, 738.500 318.468 C 756.877 306.343, 772.942 284.120, 778.598 263 C 779.555 259.425, 780.630 256.155, 780.986 255.734 C 781.628 254.973, 798.524 250.036, 800.567 250.012 C 801.154 250.006, 802.405 252.443, 803.346 255.429 C 805.542 262.394, 812.007 272.069, 817.334 276.360 C 831.643 287.886, 851.026 292.989, 880.530 292.996 C 914.307 293.004, 952.090 285.812, 996.432 270.934 L 1017.364 263.910 1021.973 265.893 C 1028.450 268.679, 1035.429 269.380, 1043 268.003 C 1052.718 266.237, 1059.620 262.532, 1067.081 255.076 L 1073.662 248.500 1071.917 257 C 1067.168 280.134, 1064.785 310, 1066.092 330 C 1067.764 355.579, 1076.244 374.772, 1088.600 380.943 C 1101.267 387.269, 1120.803 381.017, 1133.747 366.494 C 1143.079 356.024, 1151.287 336.907, 1156.336 313.883 C 1160.938 292.899, 1161.500 286.262, 1161.500 252.894 L 1161.500 221.288 1172.412 220.042 C 1178.413 219.357, 1185.388 218.180, 1187.912 217.427 C 1194.008 215.607, 1199.511 210.899, 1202.549 204.903 C 1205.155 199.761, 1206.713 189.978, 1205.621 185.625 C 1204.314 180.420, 1202.696 180.412, 1176.621 185.482 C 1163.355 188.061, 1150.570 190.852, 1148.211 191.684 C 1142.154 193.819, 1138.531 197.216, 1135.326 203.765 C 1132.025 210.514, 1131.829 215.123, 1133.893 237.492 C 1136.936 270.463, 1133.450 309.284, 1125.440 331.630 C 1120.583 345.181, 1115.684 346.128, 1111.965 334.234 C 1106.672 317.310, 1108.964 275.288, 1117.622 230.500 C 1122.146 207.100, 1127.692 186.331, 1143.127 135 C 1152.263 104.615, 1152.895 100.027, 1148.472 96.222 C 1145.751 93.882, 1145.110 93.777, 1136.548 94.274 C 1120.881 95.183, 1111.483 100, 1107.494 109.165 C 1106.456 111.549, 1105.565 113.593, 1105.514 113.706 C 1105.464 113.819, 1103.485 113.244, 1101.118 112.429 C 1097.628 111.226, 1095.649 111.153, 1090.657 112.040 C 1057.207 117.988, 1027.421 141.865, 1010.249 176.500 C 1002.907 191.307, 1000.019 202.453, 999.127 219.414 L 998.500 231.329 987 235.222 C 951.730 247.163, 911.176 253.984, 887.449 251.966 C 876.908 251.070, 873.874 250.394, 868.500 247.744 C 854.976 241.075, 849.587 229, 853.425 213.964 C 859.607 189.743, 887.070 171.298, 930.246 162.369 C 936.912 160.990, 943.521 159.257, 944.933 158.516 C 948.743 156.519, 953.577 150.963, 954.866 147.101 C 956.342 142.678, 956.321 132.798, 954.829 129.523 C 953.016 125.546, 951.098 125.288, 932 126.457 C 907.870 127.934, 893.723 122.367, 887.643 109 C 884.872 102.907, 884.982 91.631, 887.889 83.958 C 896.082 62.330, 927.430 46.005, 961.500 45.623 C 974.672 45.476, 980.098 47.152, 985.383 53.002 C 990.849 59.053, 991.524 63.204, 989.358 77.457 C 987.090 92.382, 987.167 97.400, 989.719 100.850 C 992.768 104.970, 996.707 106.462, 1004.123 106.305 C 1020.302 105.963, 1031.333 95.081, 1035.517 75.335 C 1042.021 44.637, 1027.718 20.495, 997.993 12 C 989.191 9.485, 965.652 8.500, 952.500 10.098 M 602.816 85.197 C 592.716 96.009, 580.630 138.182, 574.643 183.500 L 574.115 187.500 578.118 183 C 597.263 161.477, 611.005 133.795, 614.056 110.607 C 615.790 97.423, 613.967 85.123, 609.961 82.979 C 607.088 81.442, 606.012 81.776, 602.816 85.197 M 1091.447 141.403 C 1064.432 149.865, 1043.222 181.215, 1042.671 213.500 C 1042.537 221.308, 1042.887 224.277, 1044.266 227.044 C 1049.086 236.715, 1060.736 235.959, 1069.801 225.386 C 1077.487 216.421, 1080.268 208.997, 1088.946 174.273 C 1093.376 156.549, 1097 141.586, 1097 141.023 C 1097 139.772, 1096.560 139.802, 1091.447 141.403 M 716.994 205.934 C 706.256 209.200, 695.788 221.420, 691.489 235.703 C 688.967 244.084, 687.808 258.960, 688.959 268.169 C 691.488 288.397, 702.571 297.625, 718.131 292.457 C 728.754 288.928, 739.197 275.102, 742.257 260.512 C 743.373 255.188, 743.321 254.610, 741.632 253.601 C 733.250 248.593, 726.151 239.533, 723.252 230.145 C 722.101 226.419, 721.507 221.185, 721.504 214.750 C 721.502 208.862, 721.104 205.034, 720.500 205.086 C 719.950 205.133, 718.372 205.515, 716.994 205.934 M 234.480 245.203 C 233.513 249.216, 230.309 261.205, 227.361 271.845 C 224.412 282.485, 222 291.372, 222 291.595 C 222 292.203, 229.189 292.056, 231.640 291.398 C 233.676 290.852, 233.814 290.040, 234.485 274.662 C 234.872 265.773, 235.566 254.007, 236.026 248.514 C 236.486 243.022, 236.722 238.389, 236.550 238.217 C 236.379 238.046, 235.447 241.189, 234.480 245.203 M 153 345.723 C 151.625 345.971, 143.559 347.937, 135.076 350.093 C 99.072 359.241, 82.475 373.075, 81.206 394.995 C 80.956 399.321, 81.060 404.507, 81.438 406.520 C 82.246 410.828, 88.497 418.059, 93.441 420.405 C 98.184 422.656, 106.452 422.443, 111.627 419.938 C 117.447 417.121, 127.028 406.601, 135.250 394.001 C 141.412 384.556, 155.336 358.403, 159.342 348.750 L 160.898 345 158.199 345.136 C 156.715 345.211, 154.375 345.475, 153 345.723" stroke="none" fill="#fbfafa" fill-rule="evenodd"/><path d="M 959 0.656 C 929.661 3.470, 900.925 11.880, 880.500 23.630 C 866.638 31.605, 858.104 38.718, 836.372 60.411 C 808.627 88.104, 801.524 98.845, 797.357 119.407 C 793.153 140.156, 798.824 160.288, 812.399 172.800 L 816.732 176.794 802.983 190.517 L 789.234 204.240 787.996 200.370 C 783.610 186.666, 771.199 171.390, 759.500 165.294 C 749.697 160.187, 742.206 158.695, 729.500 159.317 C 716.053 159.976, 708.325 161.892, 696.166 167.584 C 684.951 172.833, 678.980 177.028, 668.890 186.745 L 661.280 194.075 660.745 187.417 C 660.155 180.067, 658.460 176.980, 652.908 173.148 C 649.863 171.046, 648.755 170.858, 642.500 171.380 C 638.650 171.702, 633.556 172.261, 631.181 172.623 L 626.861 173.282 632.310 164.891 C 646.387 143.215, 653.777 122.760, 655.938 99.491 C 658.055 76.703, 653.539 58.775, 643.036 48.271 C 636.926 42.161, 630.973 39.602, 621.854 39.164 C 612.776 38.729, 605.713 40.511, 595.500 45.814 C 589.723 48.813, 584.769 53.122, 567.145 70.474 C 555.400 82.038, 543.101 95.100, 539.815 99.500 C 524.226 120.373, 511.653 149.310, 502.510 185.359 C 499.644 196.656, 498.818 198.649, 495.703 201.763 C 492.317 205.149, 492.018 205.250, 489.018 204.008 C 482.538 201.323, 467.098 203.359, 457.746 208.130 C 455.438 209.307, 445.615 218.099, 435.896 227.685 L 418.239 245.102 419.172 240.301 C 421.781 226.873, 414.589 217, 402.200 217 C 395.746 217, 382.706 220.396, 377.543 223.422 C 375.272 224.753, 365.238 233.865, 355.244 243.671 C 338.849 259.758, 336.728 262.230, 333.537 268.972 C 331.592 273.081, 330 277.070, 330 277.835 C 330 278.901, 329.004 279.085, 325.750 278.622 C 323.413 278.289, 314.300 277.777, 305.500 277.484 L 289.500 276.952 289.176 264.226 C 288.786 248.882, 290.565 196.197, 292.544 164.500 C 293.334 151.850, 293.985 137.859, 293.990 133.409 C 294.008 119.089, 290.161 111.252, 280.832 106.603 C 271.420 101.913, 255.087 103.410, 241.580 110.199 C 236.861 112.571, 231.288 117.424, 216.686 131.878 C 206.338 142.120, 196.357 152.778, 194.507 155.563 C 189.630 162.900, 186.986 170.385, 178.988 199.500 C 171.613 226.346, 162.004 259.297, 155.267 280.846 L 151.407 293.193 140.016 296.126 C 112.335 303.254, 87.103 314.180, 70.950 326.032 C 58.656 335.053, 22.634 371.499, 16.153 381.475 C 2.163 403.009, -3.318 433.406, 2.626 456.500 C 6.247 470.567, 16.989 485.068, 29.133 492.282 C 39.545 498.467, 47.546 500.491, 61 500.344 C 74.643 500.195, 84.438 497.921, 96.706 492.057 C 108.823 486.265, 116.185 480.895, 129 468.504 C 135.325 462.388, 143.477 455.056, 147.117 452.212 C 163.247 439.604, 178.906 418.845, 193.599 390.590 L 199.792 378.680 200.967 384.590 C 211.744 438.781, 238.841 461.442, 280.348 450.977 C 294.794 447.336, 308.781 439.108, 321.743 426.629 L 326.987 421.581 330.743 425.185 C 337.608 431.769, 342.237 433.494, 353.052 433.497 C 362.079 433.500, 363.013 433.295, 370.052 429.778 C 374.629 427.491, 380.006 423.656, 384 419.832 C 387.575 416.409, 392.799 411.412, 395.609 408.728 L 400.717 403.848 406.227 409.358 C 410.585 413.716, 412.957 415.222, 417.571 416.564 C 425.003 418.724, 434.624 418.019, 445.313 414.530 C 461.928 409.106, 470.566 403.301, 490.231 384.343 C 498.414 376.454, 505.483 370, 505.940 370 C 506.398 370, 509.497 372.625, 512.828 375.834 C 524.211 386.801, 538.563 391.662, 556.500 390.626 C 582.034 389.150, 603.460 379.299, 623.650 359.752 L 628.800 354.766 633.428 357.951 C 647.461 367.605, 663.583 370.227, 683.565 366.103 C 703.497 361.989, 714.372 355.276, 738.246 332.350 C 747.611 323.357, 755.607 316, 756.017 316 C 756.426 316, 760.001 312.226, 763.961 307.613 L 771.160 299.227 778.830 306.968 C 784.820 313.013, 788.361 315.620, 795 318.869 C 811.261 326.829, 834.034 330.728, 858 329.655 C 893.066 328.085, 933.797 319.705, 974.360 305.714 L 987.220 301.278 993.360 303.227 C 1001.366 305.767, 1015.692 305.268, 1024.429 302.145 C 1027.690 300.979, 1030.507 300.174, 1030.688 300.355 C 1030.870 300.537, 1030.339 306.491, 1029.509 313.586 C 1027.526 330.541, 1027.534 359.028, 1029.526 370.619 C 1033.655 394.648, 1042.958 410.419, 1056.730 416.741 C 1067.230 421.560, 1083.485 419.649, 1096.653 412.046 C 1099.487 410.409, 1111.108 400.167, 1122.476 389.285 C 1144.930 367.793, 1149.214 362.285, 1155.499 346.823 C 1164.862 323.790, 1169.628 298.688, 1170.703 266.752 L 1171.300 249.005 1189.438 231.600 C 1209.044 212.787, 1211.987 208.794, 1214.048 198.221 C 1217.087 182.627, 1211.463 172.013, 1200.154 172.004 C 1193.380 171.998, 1146.539 181.684, 1141.902 184.050 C 1139.650 185.199, 1137.687 185.996, 1137.542 185.820 C 1137.397 185.644, 1141.046 172.900, 1145.652 157.500 C 1160.048 109.361, 1160.265 108.500, 1159.813 101.403 C 1159.098 90.178, 1152.856 85.044, 1139.886 85.016 C 1124.694 84.984, 1113.718 88.600, 1105.215 96.439 C 1099.940 101.303, 1099.014 101.763, 1093.189 102.411 C 1077.641 104.141, 1060.245 110.943, 1045.266 121.150 C 1040.266 124.557, 1028.921 135, 1013.413 150.471 C 994.566 169.273, 987.969 176.551, 983.087 183.929 C 973.263 198.777, 967.790 210.710, 964.022 225.500 L 962.238 232.500 956.217 234.145 C 945.231 237.147, 921.812 241.019, 907.455 242.207 C 872.683 245.084, 856.518 235.677, 862.044 215.780 C 862.902 212.693, 863.880 211.698, 867.789 209.939 C 876.061 206.217, 892.160 201.283, 903.500 198.994 C 909.550 197.773, 916.525 195.836, 919 194.690 C 921.900 193.347, 929.365 186.897, 939.991 176.553 C 958.837 158.207, 961.176 155.408, 963.433 148.500 L 965.067 143.500 974.284 143.403 C 989.813 143.241, 992.064 141.952, 1013.954 120.693 C 1024.154 110.787, 1034.145 100.297, 1036.155 97.382 C 1045.175 84.300, 1048.407 59.965, 1043.393 42.893 C 1039.627 30.069, 1029.956 17.979, 1017.500 10.521 C 1003.926 2.394, 981.067 -1.461, 959 0.656 M 952.500 10.098 C 915.171 14.631, 880.303 29.860, 859.049 50.910 C 846.540 63.300, 839.826 74.541, 836 89.500 C 828.589 118.477, 842.707 143.438, 869.673 149.036 L 875.371 150.219 864.055 155.604 C 836.654 168.644, 816.797 186.916, 807.979 207.203 L 805.500 212.907 796.130 215.953 C 785.242 219.494, 783 219.708, 783 217.210 C 783 209.208, 775.308 191.784, 768.368 184.064 C 758.096 172.640, 748.813 168.664, 732.500 168.703 C 715.505 168.744, 700.597 173.829, 686 184.565 C 659.438 204.100, 644.152 237.309, 645.167 273.274 L 645.500 285.048 637.869 293.320 C 628.703 303.256, 621.769 308.218, 612.455 311.504 C 598.717 316.351, 585.624 313.837, 579.640 305.202 C 572.415 294.777, 568.678 268.222, 570.451 239.910 L 571.177 228.319 589.339 225.078 C 626.347 218.473, 635.261 215.748, 643.815 208.426 C 649.219 203.801, 652 197.800, 652 190.766 C 652 179.194, 651.334 179.009, 625.915 183.490 C 614.968 185.421, 605.549 187, 604.983 187 C 604.418 187, 607.421 182.838, 611.657 177.750 C 635.952 148.573, 647.339 120.493, 647.445 89.500 C 647.498 74.030, 645.319 65.508, 639.265 57.500 C 634.233 50.845, 628.543 48, 620.263 48 C 597.174 48, 574.168 70.868, 556.552 111.327 C 547.553 131.994, 539.514 159.636, 534.688 186.500 L 532.353 199.500 526.926 200.700 C 523.942 201.360, 518.082 202.613, 513.905 203.484 C 508.007 204.714, 505.604 205.758, 503.146 208.161 C 497.033 214.138, 495.074 229.604, 499.653 235.738 C 502.583 239.661, 505.967 240.122, 517.549 238.172 L 527.820 236.442 527.647 261.981 L 527.474 287.519 514.370 305.010 C 492.904 333.660, 481.712 342.938, 474.913 337.718 C 468.596 332.868, 469.195 325.351, 480.469 268 C 490.023 219.395, 490.412 215.361, 485.774 212.879 C 480.565 210.091, 463.247 214.819, 457.456 220.611 C 452.550 225.517, 451.505 227.997, 446.458 246.717 C 430.297 306.663, 411.432 345.156, 399.354 342.830 C 394.824 341.957, 393.914 332.607, 396.472 313.209 C 398.917 294.673, 401.823 278.544, 406.528 257.394 C 408.987 246.335, 411 235.922, 411 234.254 C 411 229.315, 408.153 226.723, 402.843 226.830 C 387.607 227.136, 375.941 234.054, 370.602 245.952 C 364.266 260.071, 355.887 300.594, 354.094 325.788 C 353.055 340.394, 352.511 341.433, 338.500 355.600 C 318.230 376.095, 301.862 376.059, 292.461 355.500 C 288.983 347.894, 285.335 334.332, 286.463 333.203 C 286.849 332.816, 295.790 332.237, 306.333 331.915 C 323.172 331.401, 326.106 331.061, 330.488 329.116 C 340.008 324.890, 344.072 318.719, 344.721 307.500 C 345.056 301.707, 344.772 299.938, 343.072 297.241 C 338.287 289.647, 329.874 287.698, 301.383 287.582 L 281.267 287.500 280.595 272.500 C 279.832 255.467, 281.250 206.048, 283.608 167.500 C 285.726 132.883, 285.689 126.072, 283.356 121.312 C 280.569 115.627, 275.952 113, 268.746 113 C 257.229 113, 246.110 117.092, 238.456 124.148 C 229.301 132.586, 227.119 137.841, 216.091 178.007 C 205.585 216.274, 198.969 238.517, 188.795 269.782 C 181.052 293.580, 179.268 298.129, 177.546 298.471 C 139.791 305.976, 119.715 311.787, 101.131 320.589 C 60.872 339.658, 41.230 366.496, 39.353 405 C 38.708 418.252, 40.245 427.541, 44.532 436.298 C 55.437 458.568, 77.324 468.760, 103.060 463.550 C 125.421 459.023, 143.803 447.115, 160.279 426.484 C 175.516 407.404, 188.072 384.920, 199.917 355.500 L 206.762 338.500 220.924 337.126 C 228.713 336.371, 235.333 336, 235.635 336.302 C 235.937 336.604, 237.050 341.947, 238.109 348.176 C 244.575 386.236, 257.155 408.120, 276.640 415.205 C 281.009 416.793, 284.790 417.332, 291.500 417.322 C 312.398 417.291, 331.441 407.843, 350.192 388.201 L 357.884 380.144 361.044 385.069 C 367.183 394.635, 374.814 398.657, 385.063 397.728 C 402.936 396.107, 418.760 378.774, 428.079 350.608 L 431.683 339.716 432.297 348.108 C 433.380 362.903, 438.405 374.615, 445.568 379.042 C 450.390 382.022, 458.087 382.567, 466.500 380.523 C 475.660 378.297, 489.814 371.369, 498.186 365.013 C 506.483 358.713, 520.146 344.309, 528.788 332.750 C 532.386 327.937, 535.629 324, 535.994 324 C 536.359 324, 537.748 326.356, 539.079 329.236 C 542.191 335.967, 552.981 346.922, 559.436 349.905 C 562.151 351.159, 567.551 352.858, 571.436 353.679 C 588.592 357.308, 615.198 350.557, 632.500 338.183 C 635.250 336.217, 642.089 330.133, 647.698 324.665 L 657.897 314.722 663.058 319.362 C 670.023 325.624, 679.101 329.798, 688.844 331.218 C 695.470 332.184, 698.431 332.101, 706.908 330.709 C 719.495 328.643, 728.179 325.278, 738.500 318.468 C 756.877 306.343, 772.942 284.120, 778.598 263 C 779.555 259.425, 780.630 256.155, 780.986 255.734 C 781.628 254.973, 798.524 250.036, 800.567 250.012 C 801.154 250.006, 802.405 252.443, 803.346 255.429 C 805.542 262.394, 812.007 272.069, 817.334 276.360 C 831.643 287.886, 851.026 292.989, 880.530 292.996 C 914.307 293.004, 952.090 285.812, 996.432 270.934 L 1017.364 263.910 1021.973 265.893 C 1028.450 268.679, 1035.429 269.380, 1043 268.003 C 1052.718 266.237, 1059.620 262.532, 1067.081 255.076 L 1073.662 248.500 1071.917 257 C 1067.168 280.134, 1064.785 310, 1066.092 330 C 1067.764 355.579, 1076.244 374.772, 1088.600 380.943 C 1101.267 387.269, 1120.803 381.017, 1133.747 366.494 C 1143.079 356.024, 1151.287 336.907, 1156.336 313.883 C 1160.938 292.899, 1161.500 286.262, 1161.500 252.894 L 1161.500 221.288 1172.412 220.042 C 1178.413 219.357, 1185.388 218.180, 1187.912 217.427 C 1194.008 215.607, 1199.511 210.899, 1202.549 204.903 C 1205.155 199.761, 1206.713 189.978, 1205.621 185.625 C 1204.314 180.420, 1202.696 180.412, 1176.621 185.482 C 1163.355 188.061, 1150.570 190.852, 1148.211 191.684 C 1142.154 193.819, 1138.531 197.216, 1135.326 203.765 C 1132.025 210.514, 1131.829 215.123, 1133.893 237.492 C 1136.936 270.463, 1133.450 309.284, 1125.440 331.630 C 1120.583 345.181, 1115.684 346.128, 1111.965 334.234 C 1106.672 317.310, 1108.964 275.288, 1117.622 230.500 C 1122.146 207.100, 1127.692 186.331, 1143.127 135 C 1152.263 104.615, 1152.895 100.027, 1148.472 96.222 C 1145.751 93.882, 1145.110 93.777, 1136.548 94.274 C 1120.881 95.183, 1111.483 100, 1107.494 109.165 C 1106.456 111.549, 1105.565 113.593, 1105.514 113.706 C 1105.464 113.819, 1103.485 113.244, 1101.118 112.429 C 1097.628 111.226, 1095.649 111.153, 1090.657 112.040 C 1057.207 117.988, 1027.421 141.865, 1010.249 176.500 C 1002.907 191.307, 1000.019 202.453, 999.127 219.414 L 998.500 231.329 987 235.222 C 951.730 247.163, 911.176 253.984, 887.449 251.966 C 876.908 251.070, 873.874 250.394, 868.500 247.744 C 854.976 241.075, 849.587 229, 853.425 213.964 C 859.607 189.743, 887.070 171.298, 930.246 162.369 C 936.912 160.990, 943.521 159.257, 944.933 158.516 C 948.743 156.519, 953.577 150.963, 954.866 147.101 C 956.342 142.678, 956.321 132.798, 954.829 129.523 C 953.016 125.546, 951.098 125.288, 932 126.457 C 907.870 127.934, 893.723 122.367, 887.643 109 C 884.872 102.907, 884.982 91.631, 887.889 83.958 C 896.082 62.330, 927.430 46.005, 961.500 45.623 C 974.672 45.476, 980.098 47.152, 985.383 53.002 C 990.849 59.053, 991.524 63.204, 989.358 77.457 C 987.090 92.382, 987.167 97.400, 989.719 100.850 C 992.768 104.970, 996.707 106.462, 1004.123 106.305 C 1020.302 105.963, 1031.333 95.081, 1035.517 75.335 C 1042.021 44.637, 1027.718 20.495, 997.993 12 C 989.191 9.485, 965.652 8.500, 952.500 10.098 M 602.816 85.197 C 592.716 96.009, 580.630 138.182, 574.643 183.500 L 574.115 187.500 578.118 183 C 597.263 161.477, 611.005 133.795, 614.056 110.607 C 615.790 97.423, 613.967 85.123, 609.961 82.979 C 607.088 81.442, 606.012 81.776, 602.816 85.197 M 916.495 84.454 C 912.643 85.154, 906.245 86.772, 902.279 88.049 L 895.067 90.372 894.405 94.786 C 892.961 104.414, 898.531 112.645, 908.440 115.526 C 914.676 117.338, 926.621 117.755, 940.137 116.632 L 949.773 115.830 950.848 110.165 C 953.367 96.881, 953.359 92.770, 950.803 89 C 949.431 86.976, 946.969 84.997, 944.965 84.306 C 940.465 82.756, 925.405 82.834, 916.495 84.454 M 1091.447 141.403 C 1064.432 149.865, 1043.222 181.215, 1042.671 213.500 C 1042.537 221.308, 1042.887 224.277, 1044.266 227.044 C 1049.086 236.715, 1060.736 235.959, 1069.801 225.386 C 1077.487 216.421, 1080.268 208.997, 1088.946 174.273 C 1093.376 156.549, 1097 141.586, 1097 141.023 C 1097 139.772, 1096.560 139.802, 1091.447 141.403 M 716.994 205.934 C 706.256 209.200, 695.788 221.420, 691.489 235.703 C 688.967 244.084, 687.808 258.960, 688.959 268.169 C 691.488 288.397, 702.571 297.625, 718.131 292.457 C 728.754 288.928, 739.197 275.102, 742.257 260.512 C 743.373 255.188, 743.321 254.610, 741.632 253.601 C 733.250 248.593, 726.151 239.533, 723.252 230.145 C 722.101 226.419, 721.507 221.185, 721.504 214.750 C 721.502 208.862, 721.104 205.034, 720.500 205.086 C 719.950 205.133, 718.372 205.515, 716.994 205.934 M 234.480 245.203 C 233.513 249.216, 230.309 261.205, 227.361 271.845 C 224.412 282.485, 222 291.372, 222 291.595 C 222 292.203, 229.189 292.056, 231.640 291.398 C 233.676 290.852, 233.814 290.040, 234.485 274.662 C 234.872 265.773, 235.566 254.007, 236.026 248.514 C 236.486 243.022, 236.722 238.389, 236.550 238.217 C 236.379 238.046, 235.447 241.189, 234.480 245.203 M 615 246.994 C 611.103 250.033, 600.459 253.993, 589.500 256.480 L 579.500 258.750 579.731 268.125 C 579.979 278.180, 582.291 291.739, 584.472 295.928 C 587.861 302.441, 594.678 305.221, 603.295 303.605 L 606.714 302.963 607.274 290.232 C 607.898 276.050, 610.916 262.552, 615.943 251.465 C 617.555 247.909, 618.565 245.010, 618.187 245.022 C 617.809 245.034, 616.375 245.922, 615 246.994 M 487.225 279.915 C 483.574 295.423, 478.859 325.289, 480.266 324 C 480.566 323.725, 482.766 320.800, 485.156 317.500 L 489.500 311.500 489 293 C 488.522 275.305, 488.445 274.735, 487.225 279.915 M 153 345.723 C 151.625 345.971, 143.559 347.937, 135.076 350.093 C 99.072 359.241, 82.475 373.075, 81.206 394.995 C 80.956 399.321, 81.060 404.507, 81.438 406.520 C 82.246 410.828, 88.497 418.059, 93.441 420.405 C 98.184 422.656, 106.452 422.443, 111.627 419.938 C 117.447 417.121, 127.028 406.601, 135.250 394.001 C 141.412 384.556, 155.336 358.403, 159.342 348.750 L 160.898 345 158.199 345.136 C 156.715 345.211, 154.375 345.475, 153 345.723 M 110 385.118 C 108.075 385.633, 102.819 387.172, 98.321 388.538 L 90.141 391.021 89.493 396.260 C 89.137 399.142, 89.282 402.625, 89.816 404 C 91.108 407.324, 94.867 410.695, 98.206 411.523 C 101.379 412.311, 101.900 411.603, 110.559 394.750 C 113.825 388.393, 115.555 384.037, 114.791 384.090 C 114.081 384.140, 111.925 384.602, 110 385.118" stroke="none" fill="#2d2525" fill-rule="evenodd"/></svg>