<?xml version="1.0" standalone="no"?>
<!DOCTYPE svg PUBLIC "-//W3C//DTD SVG 20010904//EN"
 "http://www.w3.org/TR/2001/REC-SVG-20010904/DTD/svg10.dtd">
<svg version="1.0" xmlns="http://www.w3.org/2000/svg"
 width="1400.000000pt" height="1400.000000pt" viewBox="0 0 1400.000000 1400.000000"
 preserveAspectRatio="xMidYMid meet">
<metadata>
Created by potrace 1.14, written by Peter Selinger 2001-2017
</metadata>
<g transform="translate(0.000000,1400.000000) scale(0.100000,-0.100000)"
fill="#000000" stroke="none">
<path d="M0 7000 l0 -7000 7000 0 7000 0 0 7000 0 7000 -7000 0 -7000 0 0
-7000z m10880 2400 c151 -43 278 -137 334 -248 94 -186 65 -466 -63 -605 -54
-58 -124 -88 -210 -90 -74 -2 -113 13 -144 54 -25 35 -26 85 -3 234 21 143 14
184 -40 245 -53 58 -107 75 -239 74 -341 -4 -654 -167 -736 -384 -29 -76 -30
-189 -3 -250 61 -134 203 -189 444 -175 191 12 210 10 228 -30 15 -33 15 -132
1 -176 -13 -39 -62 -94 -100 -114 -14 -8 -80 -25 -147 -39 -431 -89 -706 -273
-768 -516 -38 -150 16 -271 151 -337 54 -27 84 -34 189 -43 238 -20 643 48
996 168 l115 39 6 119 c12 219 69 385 205 590 136 207 385 398 594 457 115 33
175 39 221 23 24 -8 44 -14 44 -13 1 1 10 22 20 45 40 92 134 140 290 149 86
5 93 4 120 -19 44 -38 38 -84 -54 -388 -230 -767 -297 -1071 -332 -1515 -36
-455 57 -725 155 -451 81 223 115 611 85 941 -21 224 -19 270 14 337 32 66 69
100 129 121 24 8 152 36 284 62 261 51 277 51 290 -1 11 -44 -4 -142 -31 -193
-30 -60 -85 -107 -146 -125 -25 -8 -95 -20 -155 -26 l-109 -13 0 -316 c0 -334
-6 -400 -52 -610 -99 -452 -294 -691 -568 -694 -147 -2 -253 117 -306 341 -51
210 -38 590 30 922 l18 85 -66 -66 c-129 -129 -305 -171 -451 -108 l-46 20
-210 -70 c-443 -149 -821 -221 -1159 -221 -295 0 -489 51 -632 166 -53 43
-118 140 -140 210 -9 30 -21 54 -27 54 -21 0 -190 -50 -196 -57 -4 -5 -14 -37
-24 -73 -57 -211 -217 -433 -401 -555 -103 -68 -190 -101 -316 -122 -85 -14
-114 -15 -181 -5 -97 14 -188 56 -257 118 l-52 47 -102 -100 c-56 -54 -124
-115 -152 -135 -173 -124 -439 -191 -611 -155 -38 8 -92 25 -120 38 -64 30
-172 139 -203 207 -14 28 -27 52 -31 52 -4 0 -36 -39 -72 -87 -87 -116 -223
-260 -306 -323 -84 -64 -225 -133 -317 -155 -84 -21 -161 -15 -209 15 -72 44
-122 161 -133 309 l-6 84 -36 -109 c-93 -282 -252 -455 -430 -471 -103 -10
-179 31 -241 126 l-31 50 -77 -81 c-188 -196 -378 -291 -587 -291 -284 -1
-454 218 -534 691 -10 63 -22 116 -25 119 -3 3 -69 -1 -147 -8 l-141 -14 -69
-170 c-226 -562 -504 -916 -814 -1036 -326 -127 -609 -40 -740 228 -43 88 -58
180 -51 313 18 385 215 653 617 844 186 88 387 146 764 221 18 4 36 49 113
287 102 313 168 535 273 918 110 402 132 454 224 539 76 70 187 111 302 111
73 0 119 -26 147 -83 23 -48 23 -116 2 -462 -24 -385 -38 -880 -30 -1050 l7
-150 201 -1 c285 -1 369 -20 417 -96 17 -27 20 -45 16 -103 -6 -112 -47 -174
-142 -216 -44 -20 -73 -23 -242 -28 -105 -3 -195 -9 -198 -13 -12 -11 25 -147
60 -223 94 -206 257 -206 460 -1 140 142 146 152 156 298 18 252 102 657 165
798 53 119 170 189 322 192 54 1 82 -25 82 -75 0 -16 -20 -120 -45 -231 -47
-211 -76 -373 -100 -558 -26 -194 -17 -288 29 -296 120 -24 309 361 471 961
50 187 60 212 110 261 57 58 231 105 283 77 46 -25 42 -65 -53 -551 -113 -574
-119 -649 -56 -697 68 -52 180 40 395 327 l131 175 1 255 2 256 -103 -18
c-115 -19 -149 -15 -178 25 -46 61 -27 216 34 275 25 24 49 35 108 47 42 9
100 21 130 28 l55 12 23 130 c148 823 495 1385 856 1385 82 0 139 -28 190 -95
60 -80 82 -165 81 -320 -1 -310 -114 -591 -357 -882 -43 -51 -73 -93 -67 -93
5 0 100 16 209 35 254 45 261 43 261 -73 0 -70 -28 -130 -82 -176 -85 -73
-175 -101 -545 -167 l-181 -32 -7 -116 c-18 -283 19 -549 91 -653 60 -86 191
-112 329 -63 93 33 162 82 254 182 l76 83 -3 117 c-10 360 142 692 408 887
146 108 295 159 465 159 163 0 256 -39 359 -154 69 -77 146 -251 146 -331 0
-25 22 -23 131 12 l94 31 25 57 c88 203 287 386 561 516 l113 54 -57 12 c-270
56 -411 305 -337 595 38 150 105 262 230 386 213 210 562 363 935 408 132 16
367 6 455 -19z"/>
<path d="M6928 8668 c-101 -108 -222 -530 -282 -983 l-5 -40 40 45 c192 215
329 492 360 724 17 132 -1 255 -41 276 -29 16 -40 12 -72 -22z"/>
<path d="M11814 8106 c-270 -85 -482 -398 -487 -721 -2 -78 2 -108 16 -135 48
-97 164 -90 255 16 77 90 105 164 191 511 45 178 81 327 81 333 0 12 -4 12
-56 -4z"/>
<path d="M8070 7461 c-107 -33 -212 -155 -255 -298 -25 -84 -37 -233 -25 -325
25 -202 136 -294 291 -243 107 36 211 174 242 320 11 53 10 59 -7 69 -83 50
-154 141 -183 235 -12 37 -18 89 -18 154 0 58 -4 97 -10 96 -5 0 -21 -4 -35
-8z"/>
<path d="M3245 7068 c-10 -40 -42 -160 -71 -266 -30 -107 -54 -196 -54 -198 0
-6 72 -5 96 2 21 5 22 14 29 167 4 89 11 207 15 262 5 55 7 101 6 103 -2 2
-12 -30 -21 -70z"/>
<path d="M2430 6063 c-14 -3 -94 -22 -179 -44 -360 -91 -526 -230 -539 -449
-2 -43 -1 -95 2 -115 8 -43 71 -116 120 -139 48 -23 131 -20 182 5 58 28 154
133 236 259 62 94 201 356 241 453 l16 37 -27 -1 c-15 -1 -38 -4 -52 -6z"/>
</g>
</svg>
